#Comment line ignore any data following # character 
#Hierarchical Translation and Rotation (.htr) file 
[Header]	
#Header keywords are followed by a single value 
FileType HTR		#Single word string
DataType HTRS		#Translation followed by rotation and scale data
FileVersion 1		#integer
NumSegments 84		#integer
NumFrames 2		#integer
DataFrameRate 30		#integer, data frame rate in this file
EulerRotationOrder ZYX
CalibrationUnits mm
RotationUnits Degrees
GlobalAxisofGravity Y
BoneLengthAxis Y
ScaleFactor 1.00
[SegmentNames&Hierarchy]
#CHILD	PARENT
MASTER GLOBAL
root MASTER
chest root
L_mid_tent01 root
R_mid_tent01 root
spine01 root
Bip01_Neck chest
L_humerus chest
R_humerus chest
weapon_bone chest
Bip01_Head Bip01_Neck
eye_left_bone Bip01_Head
eye_right_bone Bip01_Head
L_forearm L_humerus
L_front_hand L_forearm
L_weapon_bone L_forearm
L_front_hand01_01 L_front_hand
L_front_hand02_01 L_front_hand
L_front_hand03_01 L_front_hand
L_front_hand01_02 L_front_hand01_01
L_front_hand02_02 L_front_hand02_01
L_front_hand03_02 L_front_hand03_01
R_forearm R_humerus
R_front_hand R_forearm
R_weapon_bone R_forearm
R_front_hand01_01 R_front_hand
R_front_hand02_01 R_front_hand
R_front_hand03_01 R_front_hand
R_front_hand01_02 R_front_hand01_01
R_front_hand02_02 R_front_hand02_01
R_front_hand03_02 R_front_hand03_01
null_rope01_connect L_mid_tent01
Rope1_Seg01 null_rope01_connect
Rope1_Seg02 Rope1_Seg01
Rope1_Seg03 Rope1_Seg02
Rope1_Seg04 Rope1_Seg03
Rope1_Seg05 Rope1_Seg04
Rope1_Seg06 Rope1_Seg05
Rope1_Seg07 Rope1_Seg06
Rope1_Seg09 Rope1_Seg07
L_mid_hand01 Rope1_Seg09
L_mid_hand02 Rope1_Seg09
L_mid_hand03 Rope1_Seg09
null_rope02_connect R_mid_tent01
Rope2_Seg01 null_rope02_connect
Rope2_Seg02 Rope2_Seg01
Rope2_Seg03 Rope2_Seg02
Rope2_Seg04 Rope2_Seg03
Rope2_Seg05 Rope2_Seg04
Rope2_Seg06 Rope2_Seg05
Rope2_Seg07 Rope2_Seg06
Rope2_Seg09 Rope2_Seg07
R_mid_hand01 Rope2_Seg09
R_mid_hand02 Rope2_Seg09
R_mid_hand03 Rope2_Seg09
spine02 spine01
spine03 spine02
pelvis spine03
null_rope03_connect pelvis
null_rope04_connect pelvis
Rope3_Seg01 null_rope03_connect
Rope3_Seg02 Rope3_Seg01
Rope3_Seg03 Rope3_Seg02
Rope3_Seg04 Rope3_Seg03
Rope3_Seg05 Rope3_Seg04
Rope3_Seg06 Rope3_Seg05
Rope3_Seg07 Rope3_Seg06
Rope3_Seg08 Rope3_Seg07
Rope3_Seg09 Rope3_Seg08
R_rear_hand01 Rope3_Seg09
R_rear_hand02 Rope3_Seg09
R_rear_hand03 Rope3_Seg09
Rope4_Seg01 null_rope04_connect
Rope4_Seg02 Rope4_Seg01
Rope4_Seg03 Rope4_Seg02
Rope4_Seg04 Rope4_Seg03
Rope4_Seg05 Rope4_Seg04
Rope4_Seg06 Rope4_Seg05
Rope4_Seg07 Rope4_Seg06
Rope4_Seg08 Rope4_Seg07
Rope4_Seg09 Rope4_Seg08
L_rear_hand01 Rope4_Seg09
L_rear_hand02 Rope4_Seg09
L_rear_hand03 Rope4_Seg09
[BasePosition]
#SegmentName Tx, Ty, Tz, Rx, Ry, Rz, BoneLength
MASTER 0.000000 0.000000 0.000000 -90.000000 0.000000 0.000000 10.000000 
root 0.000000 0.000000 0.000000 0.000000 0.000000 0.000000 10.000000 
chest 0.000000 0.000000 0.000000 0.000000 0.000000 0.000000 10.000000 
L_mid_tent01 0.000000 0.000000 0.000000 0.000000 0.000000 0.000000 10.000000 
R_mid_tent01 0.000000 0.000000 0.000000 0.000000 0.000000 0.000000 10.000000 
spine01 0.000000 0.000000 0.000000 0.000000 0.000000 0.000000 10.000000 
Bip01_Neck 0.000000 0.000000 0.000000 0.000000 0.000000 0.000000 10.000000 
L_humerus 0.000000 0.000000 0.000000 0.000000 0.000000 0.000000 10.000000 
R_humerus 0.000000 0.000000 0.000000 0.000000 0.000000 0.000000 10.000000 
weapon_bone 0.000000 0.000000 0.000000 0.000000 0.000000 0.000000 10.000000 
Bip01_Head 0.000000 0.000000 0.000000 0.000000 0.000000 0.000000 10.000000 
eye_left_bone 0.000000 0.000000 0.000000 0.000000 0.000000 0.000000 10.000000 
eye_right_bone 0.000000 0.000000 0.000000 0.000000 0.000000 0.000000 10.000000 
L_forearm 0.000000 0.000000 0.000000 0.000000 0.000000 0.000000 10.000000 
L_front_hand 0.000000 0.000000 0.000000 0.000000 0.000000 0.000000 10.000000 
L_weapon_bone 0.000000 0.000000 0.000000 0.000000 0.000000 0.000000 10.000000 
L_front_hand01_01 0.000000 0.000000 0.000000 0.000000 0.000000 0.000000 10.000000 
L_front_hand02_01 0.000000 0.000000 0.000000 0.000000 0.000000 0.000000 10.000000 
L_front_hand03_01 0.000000 0.000000 0.000000 0.000000 0.000000 0.000000 10.000000 
L_front_hand01_02 0.000000 0.000000 0.000000 0.000000 0.000000 0.000000 10.000000 
L_front_hand02_02 0.000000 0.000000 0.000000 0.000000 0.000000 0.000000 10.000000 
L_front_hand03_02 0.000000 0.000000 0.000000 0.000000 0.000000 0.000000 10.000000 
R_forearm 0.000000 0.000000 0.000000 0.000000 0.000000 0.000000 10.000000 
R_front_hand 0.000000 0.000000 0.000000 0.000000 0.000000 0.000000 10.000000 
R_weapon_bone 0.000000 0.000000 0.000000 0.000000 0.000000 0.000000 10.000000 
R_front_hand01_01 0.000000 0.000000 0.000000 0.000000 0.000000 0.000000 10.000000 
R_front_hand02_01 0.000000 0.000000 0.000000 0.000000 0.000000 0.000000 10.000000 
R_front_hand03_01 0.000000 0.000000 0.000000 0.000000 0.000000 0.000000 10.000000 
R_front_hand01_02 0.000000 0.000000 0.000000 0.000000 0.000000 0.000000 10.000000 
R_front_hand02_02 0.000000 0.000000 0.000000 0.000000 0.000000 0.000000 10.000000 
R_front_hand03_02 0.000000 0.000000 0.000000 0.000000 0.000000 0.000000 10.000000 
null_rope01_connect 0.000000 0.000000 0.000000 0.000000 0.000000 0.000000 10.000000 
Rope1_Seg01 0.000000 0.000000 0.000000 0.000000 0.000000 0.000000 10.000000 
Rope1_Seg02 0.000000 0.000000 0.000000 0.000000 0.000000 0.000000 10.000000 
Rope1_Seg03 0.000000 0.000000 0.000000 0.000000 0.000000 0.000000 10.000000 
Rope1_Seg04 0.000000 0.000000 0.000000 0.000000 0.000000 0.000000 10.000000 
Rope1_Seg05 0.000000 0.000000 0.000000 0.000000 0.000000 0.000000 10.000000 
Rope1_Seg06 0.000000 0.000000 0.000000 0.000000 0.000000 0.000000 10.000000 
Rope1_Seg07 0.000000 0.000000 0.000000 0.000000 0.000000 0.000000 10.000000 
Rope1_Seg09 0.000000 0.000000 0.000000 0.000000 0.000000 0.000000 10.000000 
L_mid_hand01 0.000000 0.000000 0.000000 0.000000 0.000000 0.000000 10.000000 
L_mid_hand02 0.000000 0.000000 0.000000 0.000000 0.000000 0.000000 10.000000 
L_mid_hand03 0.000000 0.000000 0.000000 0.000000 0.000000 0.000000 10.000000 
null_rope02_connect 0.000000 0.000000 0.000000 0.000000 0.000000 0.000000 10.000000 
Rope2_Seg01 0.000000 0.000000 0.000000 0.000000 0.000000 0.000000 10.000000 
Rope2_Seg02 0.000000 0.000000 0.000000 0.000000 0.000000 0.000000 10.000000 
Rope2_Seg03 0.000000 0.000000 0.000000 0.000000 0.000000 0.000000 10.000000 
Rope2_Seg04 0.000000 0.000000 0.000000 0.000000 0.000000 0.000000 10.000000 
Rope2_Seg05 0.000000 0.000000 0.000000 0.000000 0.000000 0.000000 10.000000 
Rope2_Seg06 0.000000 0.000000 0.000000 0.000000 0.000000 0.000000 10.000000 
Rope2_Seg07 0.000000 0.000000 0.000000 0.000000 0.000000 0.000000 10.000000 
Rope2_Seg09 0.000000 0.000000 0.000000 0.000000 0.000000 0.000000 10.000000 
R_mid_hand01 0.000000 0.000000 0.000000 0.000000 0.000000 0.000000 10.000000 
R_mid_hand02 0.000000 0.000000 0.000000 0.000000 0.000000 0.000000 10.000000 
R_mid_hand03 0.000000 0.000000 0.000000 0.000000 0.000000 0.000000 10.000000 
spine02 0.000000 0.000000 0.000000 0.000000 0.000000 0.000000 10.000000 
spine03 0.000000 0.000000 0.000000 0.000000 0.000000 0.000000 10.000000 
pelvis 0.000000 0.000000 0.000000 0.000000 0.000000 0.000000 10.000000 
null_rope03_connect 0.000000 0.000000 0.000000 0.000000 0.000000 0.000000 10.000000 
null_rope04_connect 0.000000 0.000000 0.000000 0.000000 0.000000 0.000000 10.000000 
Rope3_Seg01 0.000000 0.000000 0.000000 0.000000 0.000000 0.000000 10.000000 
Rope3_Seg02 0.000000 0.000000 0.000000 0.000000 0.000000 0.000000 10.000000 
Rope3_Seg03 0.000000 0.000000 0.000000 0.000000 0.000000 0.000000 10.000000 
Rope3_Seg04 0.000000 0.000000 0.000000 0.000000 0.000000 0.000000 10.000000 
Rope3_Seg05 0.000000 0.000000 0.000000 0.000000 0.000000 0.000000 10.000000 
Rope3_Seg06 0.000000 0.000000 0.000000 0.000000 0.000000 0.000000 10.000000 
Rope3_Seg07 0.000000 0.000000 0.000000 0.000000 0.000000 0.000000 10.000000 
Rope3_Seg08 0.000000 0.000000 0.000000 0.000000 0.000000 0.000000 10.000000 
Rope3_Seg09 0.000000 0.000000 0.000000 0.000000 0.000000 0.000000 10.000000 
R_rear_hand01 0.000000 0.000000 0.000000 0.000000 0.000000 0.000000 10.000000 
R_rear_hand02 0.000000 0.000000 0.000000 0.000000 0.000000 0.000000 10.000000 
R_rear_hand03 0.000000 0.000000 0.000000 0.000000 0.000000 0.000000 10.000000 
Rope4_Seg01 0.000000 0.000000 0.000000 0.000000 0.000000 0.000000 10.000000 
Rope4_Seg02 0.000000 0.000000 0.000000 0.000000 0.000000 0.000000 10.000000 
Rope4_Seg03 0.000000 0.000000 0.000000 0.000000 0.000000 0.000000 10.000000 
Rope4_Seg04 0.000000 0.000000 0.000000 0.000000 0.000000 0.000000 10.000000 
Rope4_Seg05 0.000000 0.000000 0.000000 0.000000 0.000000 0.000000 10.000000 
Rope4_Seg06 0.000000 0.000000 0.000000 0.000000 0.000000 0.000000 10.000000 
Rope4_Seg07 0.000000 0.000000 0.000000 0.000000 0.000000 0.000000 10.000000 
Rope4_Seg08 0.000000 0.000000 0.000000 0.000000 0.000000 0.000000 10.000000 
Rope4_Seg09 0.000000 0.000000 0.000000 0.000000 0.000000 0.000000 10.000000 
L_rear_hand01 0.000000 0.000000 0.000000 0.000000 0.000000 0.000000 10.000000 
L_rear_hand02 0.000000 0.000000 0.000000 0.000000 0.000000 0.000000 10.000000 
L_rear_hand03 0.000000 0.000000 0.000000 0.000000 0.000000 0.000000 10.000000 
#Beginning of Data. Separated by tabs
#Fr	Tx	Ty	Tz	Rx	Ry	Rz	SF
[MASTER]
59 0.000000 0.000000 0.000000 0.000000 -0.002347 -90.000000 0.000000
60 0.000000 0.000000 0.000000 0.000000 -0.002347 -89.999992 0.000000
[root]
59 -14.348907 -1.173079 472.594574 -88.582230 -10.448836 179.361130 472.813782
60 -14.348907 -1.019661 472.594574 -88.582237 -10.448839 179.361130 472.813446
[chest]
59 -84.512650 -34.090519 0.000000 -2.029100 3.785991 -179.004654 91.129311
60 -84.512650 -34.090519 0.000000 -1.752890 3.842524 -179.342865 91.129311
[L_mid_tent01]
59 27.299511 22.177458 -249.918259 -63.657547 18.686344 33.262245 252.381134
60 27.299511 22.177458 -249.918259 -63.657543 18.686338 33.262241 252.381134
[R_mid_tent01]
59 23.228794 24.509907 226.238495 -131.259216 -15.836100 39.582573 228.744751
60 23.228794 24.509907 226.238495 -131.259216 -15.836094 39.582561 228.744751
[spine01]
59 -0.361383 -0.195265 0.000000 0.001845 0.001451 13.654368 0.410763
60 -0.361383 -0.195265 0.000000 0.001845 0.001451 13.654368 0.410763
[Bip01_Neck]
59 165.484543 71.581718 0.000119 176.643677 -1.657967 43.431911 180.302734
60 165.484543 71.581718 0.000119 176.643677 -1.657967 43.431911 180.302734
[L_humerus]
59 -13.983130 -135.272980 -120.471481 169.304306 4.192606 -117.974319 181.680161
60 -13.983130 -135.272980 -120.471481 170.080444 3.833206 -117.877251 181.680161
[R_humerus]
59 -13.983309 -135.273102 125.287651 -173.605469 -1.066653 -121.238998 184.909012
60 -13.983309 -135.273102 125.287651 -174.467300 -0.771731 -121.180809 184.909012
[weapon_bone]
59 235.964890 -300.705902 0.000000 0.000000 -89.951546 -128.212341 382.234833
60 235.964890 -300.705902 0.000000 0.000000 -89.951546 -128.212341 382.234833
[Bip01_Head]
59 128.171936 128.412292 8.333418 1.938589 3.724703 -19.795942 181.623810
60 128.171936 128.412292 8.333418 1.938589 3.724703 -19.795940 181.623810
[eye_left_bone]
59 -24.626970 125.451866 -64.772606 0.000000 -90.000000 -99.840431 143.318359
60 -24.626970 125.451866 -64.772606 0.000000 -90.000000 -99.840431 143.318359
[eye_right_bone]
59 -24.626970 125.451866 64.327362 0.000000 -89.980217 80.156387 143.117676
60 -24.626970 125.451866 64.327362 0.000000 -89.972023 80.156387 143.117676
[L_forearm]
59 322.776093 0.000000 -0.000119 0.000707 -0.002238 -125.070831 322.776093
60 322.776093 0.000000 -0.000119 0.000705 -0.002239 -124.961250 322.776093
[L_front_hand]
59 241.149185 -0.042021 -3.300071 109.257416 -1.836698 -27.423460 241.171753
60 241.149185 -0.042021 -3.300071 109.476456 -1.835355 -27.421244 241.171753
[L_weapon_bone]
59 156.183838 0.000000 0.000000 0.000014 0.000007 0.000001 156.183838
60 156.183838 0.000000 0.000000 0.000014 0.000007 0.000001 156.183838
[L_front_hand01_01]
59 86.095154 20.947098 -0.655860 -0.366594 -0.477154 75.385574 88.609184
60 86.095154 20.947098 -0.655860 -0.366594 -0.477154 75.385574 88.609184
[L_front_hand02_01]
59 86.935165 -11.437475 24.513514 154.399796 -59.883835 -61.369587 91.046425
60 86.935165 -11.437475 24.513514 154.399811 -59.883835 -61.369606 91.046425
[L_front_hand03_01]
59 86.637497 -14.123976 -20.424902 -153.913879 58.118130 -62.702892 90.126129
60 86.637497 -14.123976 -20.424902 -153.913849 58.118122 -62.702866 90.126129
[L_front_hand01_02]
59 71.020905 -0.000179 0.000030 0.000334 -0.002323 -106.379684 71.020905
60 71.020905 -0.000179 0.000030 0.000334 -0.002323 -106.379684 71.020905
[L_front_hand02_02]
59 71.020927 -0.000119 0.000060 0.000334 -0.002323 -106.379684 71.020927
60 71.020927 -0.000119 0.000060 0.000334 -0.002323 -106.379684 71.020927
[L_front_hand03_02]
59 71.020905 -0.000060 0.000060 0.000334 -0.002323 -106.379684 71.020905
60 71.020905 -0.000060 0.000060 0.000334 -0.002323 -106.379684 71.020905
[R_forearm]
59 322.776428 -0.000060 0.000030 0.175241 0.119298 -124.704025 322.776428
60 322.776428 -0.000060 0.000030 0.174484 0.120928 -125.145294 322.776428
[R_front_hand]
59 238.847015 -0.006795 2.210259 -143.888214 -10.645146 -26.312532 238.857239
60 238.847015 -0.006795 2.210259 -144.111191 -10.647437 -26.313162 238.857239
[R_weapon_bone]
59 155.664093 0.002503 -0.000030 0.003487 0.001180 -90.988930 155.664078
60 155.664093 0.002503 -0.000030 0.003487 0.001180 -90.988930 155.664078
[R_front_hand01_01]
59 87.624611 14.231146 22.918642 -154.633514 -59.950634 61.746063 91.683487
60 87.624611 14.231146 22.918642 -154.633499 -59.950607 61.746044 91.683487
[R_front_hand02_01]
59 89.356956 14.367283 -19.491137 154.602661 58.302849 63.744381 92.579636
60 89.356956 14.367283 -19.491137 154.602661 58.302849 63.744389 92.579636
[R_front_hand03_01]
59 87.286232 -22.307278 -0.143439 0.162155 -0.423168 -75.767921 90.091743
60 87.286232 -22.307278 -0.143439 0.162155 -0.423168 -75.767906 90.091743
[R_front_hand01_02]
59 71.020905 0.000060 0.000119 0.002323 -0.000334 106.381721 71.020905
60 71.020905 0.000060 0.000119 0.002323 -0.000334 106.381714 71.020905
[R_front_hand02_02]
59 71.020844 -0.000030 -0.000119 0.002323 -0.000334 106.381721 71.020836
60 71.020844 -0.000030 -0.000119 0.002323 -0.000334 106.381714 71.020836
[R_front_hand03_02]
59 71.020905 0.000000 0.000030 0.002323 -0.000334 106.381721 71.020905
60 71.020905 0.000000 0.000030 0.002323 -0.000334 106.381714 71.020905
[null_rope01_connect]
59 328.732483 0.000000 -0.000238 -166.231216 26.298849 69.278122 328.732483
60 328.732483 0.000000 -0.000238 -166.231216 26.298847 69.278114 328.732483
[Rope1_Seg01]
59 0.000000 0.000000 0.000000 132.111710 -34.918987 -59.254547 0.000000
60 0.000000 0.000000 0.000000 133.533951 -35.654835 -60.903515 0.000000
[Rope1_Seg02]
59 139.999863 -0.000179 0.000000 -4.405518 -5.126231 -3.135741 139.999863
60 139.999863 -0.000179 0.000000 -4.767228 -5.208902 -3.314898 139.999863
[Rope1_Seg03]
59 139.999924 0.000060 -0.000060 -7.553581 -8.254871 -6.030439 139.999924
60 139.999924 0.000060 -0.000060 -8.123016 -8.362595 -6.432350 139.999924
[Rope1_Seg04]
59 139.999924 -0.000060 -0.000119 -13.516811 -15.172946 -14.075145 139.999924
60 139.999924 -0.000060 -0.000119 -14.023561 -15.039368 -15.075324 139.999924
[Rope1_Seg05]
59 139.999832 0.000119 -0.000060 -11.999193 -15.228064 -25.061481 139.999832
60 139.999832 0.000119 -0.000060 -11.456076 -13.844707 -25.571487 139.999832
[Rope1_Seg06]
59 139.999954 0.000119 -0.000060 -4.133726 -2.149330 -29.572975 139.999954
60 139.999954 0.000119 -0.000060 -3.734637 -1.731405 -29.148573 139.999954
[Rope1_Seg07]
59 139.999985 0.000060 0.000000 2.731370 1.288439 -28.531921 139.999985
60 139.999985 0.000060 0.000000 3.009065 1.185333 -28.170656 139.999985
[Rope1_Seg09]
59 121.602913 0.000119 -0.000089 -89.793175 -1.359789 0.847147 121.602913
60 121.602913 0.000119 -0.000089 -89.793175 -1.359789 0.847147 121.602913
[L_mid_hand01]
59 103.859421 1.038730 8.195221 109.056198 -40.604706 -13.201404 104.187431
60 103.859421 1.038730 8.195221 109.056198 -40.604702 -13.201401 104.187431
[L_mid_hand02]
59 105.572853 -4.139662 -10.864139 -146.713593 31.476528 -37.902313 106.211075
60 105.572853 -4.139662 -10.864139 -146.713593 31.476524 -37.902313 106.211075
[L_mid_hand03]
59 104.641464 17.579376 -3.913581 -14.267233 12.322316 43.898396 106.179977
60 104.641464 17.579376 -3.913581 -14.267233 12.322316 43.898396 106.179977
[null_rope02_connect]
59 328.732849 0.000179 -0.000119 -164.342651 -37.938038 110.680077 328.732849
60 328.732849 0.000179 -0.000119 -164.342651 -37.938038 110.680077 328.732849
[Rope2_Seg01]
59 -0.000038 -0.000114 0.000103 -61.530743 -39.550961 -114.985680 0.000158
60 -0.000038 -0.000114 0.000103 -62.176270 -39.785480 -114.123238 0.000158
[Rope2_Seg02]
59 139.999741 -0.000060 -0.000119 3.052495 2.955006 5.541325 139.999756
60 139.999741 -0.000060 -0.000119 3.193558 3.070654 5.598076 139.999756
[Rope2_Seg03]
59 140.000107 0.000030 0.000000 5.318918 5.695898 9.546428 140.000107
60 140.000107 0.000030 0.000000 5.540007 5.944685 9.648542 140.000107
[Rope2_Seg04]
59 139.999802 0.000000 -0.000060 10.622046 13.403484 19.650536 139.999802
60 139.999802 0.000000 -0.000060 10.862997 13.994793 19.725790 139.999802
[Rope2_Seg05]
59 139.999985 -0.000060 0.000119 10.508827 21.808222 25.028555 139.999985
60 139.999985 -0.000060 0.000119 10.105516 22.193287 24.333145 139.999985
[Rope2_Seg06]
59 139.999893 -0.000030 -0.000119 1.744759 18.739771 14.710310 139.999893
60 139.999893 -0.000030 -0.000119 1.459348 18.430386 14.480565 139.999893
[Rope2_Seg07]
59 139.999893 0.000060 -0.000060 -2.445038 17.951771 13.353087 139.999893
60 139.999893 0.000060 -0.000060 -2.574562 17.741732 13.568274 139.999893
[Rope2_Seg09]
59 121.338966 0.000089 -0.000060 33.793236 -1.359788 -0.847141 121.338966
60 121.338966 0.000089 -0.000060 33.793236 -1.359788 -0.847141 121.338966
[R_mid_hand01]
59 104.680779 11.144459 -10.335981 -37.204079 31.906813 37.576260 105.778534
60 104.680779 11.144459 -10.335981 -37.204067 31.906805 37.576252 105.778534
[R_mid_hand02]
59 104.070427 2.443552 8.231699 70.367470 -42.427395 14.067809 104.424065
60 104.070427 2.443552 8.231699 70.367462 -42.427380 14.067804 104.424065
[R_mid_hand03]
59 106.028137 -11.221827 -5.996406 -169.893616 12.226661 -47.211018 106.788818
60 106.028137 -11.221827 -5.996406 -169.893616 12.226661 -47.211018 106.788818
[spine02]
59 129.756927 0.001550 0.000119 -1.023900 -3.926965 6.770994 129.756927
60 129.756927 0.001550 0.000119 -1.023899 -3.926964 6.770991 129.756927
[spine03]
59 78.613846 0.087372 -4.898873 1.040681 4.146420 4.212376 78.766380
60 78.613846 0.087372 -4.898873 1.040680 4.146419 4.212375 78.766380
[pelvis]
59 169.435242 0.051022 0.000000 0.019518 -0.190233 -10.721436 169.435257
60 169.435242 0.051022 0.000000 0.019518 -0.190233 -10.721435 169.435257
[null_rope03_connect]
59 -1.257226 -2.466202 137.391083 21.146282 88.832657 -72.228729 137.418976
60 -1.257226 -2.466202 137.391083 21.146282 88.832657 -72.228729 137.418976
[null_rope04_connect]
59 -1.259640 -2.480268 -137.844437 21.146282 88.832657 -72.228729 137.872513
60 -1.259640 -2.480268 -137.844437 21.146282 88.832657 -72.228729 137.872513
[Rope3_Seg01]
59 0.000000 0.000000 0.000000 -138.120743 -44.487984 106.756142 0.000000
60 0.000000 0.000000 0.000000 -138.120743 -44.487984 106.756142 0.000000
[Rope3_Seg02]
59 139.999924 -0.000119 0.000060 3.745520 -14.663014 5.634119 139.999924
60 139.999924 -0.000119 0.000060 3.745520 -14.663014 5.634119 139.999924
[Rope3_Seg03]
59 139.999924 -0.000119 0.000119 5.770065 -20.482847 10.063569 139.999924
60 139.999924 -0.000119 0.000119 5.769019 -20.480774 10.066356 139.999924
[Rope3_Seg04]
59 139.999924 0.000119 0.000000 4.970257 -15.910580 10.551027 139.999924
60 139.999924 0.000119 0.000000 4.963873 -15.900831 10.567257 139.999924
[Rope3_Seg05]
59 139.999924 -0.000238 0.000060 4.226391 -14.358351 11.952390 139.999924
60 139.999924 -0.000238 0.000060 4.226253 -14.377654 11.937732 139.999924
[Rope3_Seg06]
59 139.999893 -0.000119 -0.000060 1.879010 -22.808210 24.564476 139.999893
60 139.999893 -0.000119 -0.000060 1.920666 -22.841772 24.455099 139.999893
[Rope3_Seg07]
59 139.999771 0.000060 -0.000119 -0.373885 -13.618372 17.789188 139.999771
60 139.999771 0.000060 -0.000119 -0.329100 -13.624476 17.733528 139.999771
[Rope3_Seg08]
59 139.999985 -0.000060 0.000000 -0.155212 -5.849935 7.915360 139.999985
60 139.999985 -0.000060 0.000000 -0.134848 -5.851313 7.903569 139.999985
[Rope3_Seg09]
59 90.185997 -0.000179 -0.000060 89.793228 -1.359877 -0.847183 90.185997
60 90.185997 -0.000179 -0.000060 89.793228 -1.359877 -0.847183 90.185997
[R_rear_hand01]
59 103.366196 -6.073594 -10.757982 -164.755127 19.627701 -40.352165 104.101845
60 103.366196 -6.073594 -10.757982 -164.755127 19.627697 -40.352165 104.101845
[R_rear_hand02]
59 100.509819 12.039542 -7.992327 -30.792652 24.782448 38.141541 101.543350
60 100.509819 12.039542 -7.992327 -30.792652 24.782448 38.141541 101.543350
[R_rear_hand03]
59 101.539970 5.215704 5.435467 82.448364 -41.048260 8.840381 101.819031
60 101.539970 5.215704 5.435467 82.448349 -41.048244 8.840375 101.819031
[Rope4_Seg01]
59 0.000010 0.000038 -0.000114 61.165009 -42.715210 65.384666 0.000121
60 0.000010 0.000038 -0.000114 61.165009 -42.715210 65.384666 0.000121
[Rope4_Seg02]
59 139.999985 0.000060 0.000119 -4.962852 4.744948 -11.563675 139.999985
60 139.999985 0.000060 0.000119 -4.962852 4.744948 -11.563675 139.999985
[Rope4_Seg03]
59 139.999924 0.000000 -0.000238 -8.121345 8.889407 -17.734104 139.999924
60 139.999924 0.000000 -0.000238 -8.121903 8.886699 -17.735884 139.999924
[Rope4_Seg04]
59 139.999985 0.000000 0.000119 -7.512029 13.765334 -17.256250 139.999985
60 139.999985 0.000000 0.000119 -7.532898 13.639686 -17.319021 139.999985
[Rope4_Seg05]
59 139.999802 -0.000060 -0.000119 -3.907438 9.980597 -14.071522 139.999802
60 139.999802 -0.000060 -0.000119 -3.929966 10.022685 -13.997433 139.999802
[Rope4_Seg06]
59 139.999924 0.000000 0.000060 -6.665540 13.599239 -27.907181 139.999924
60 139.999924 0.000000 0.000060 -6.681386 14.113793 -27.795933 139.999924
[Rope4_Seg07]
59 139.999802 0.000000 0.000000 -4.862168 14.676431 -26.036861 139.999802
60 139.999802 0.000000 0.000000 -4.655976 15.217585 -26.116184 139.999802
[Rope4_Seg08]
59 139.999924 0.000000 0.000119 -2.063486 6.734095 -10.108573 139.999924
60 139.999924 0.000000 0.000119 -1.885656 6.860442 -10.133707 139.999924
[Rope4_Seg09]
59 90.185791 0.000060 0.000060 -135.617828 2.228885 0.850567 90.185791
60 90.185791 0.000060 0.000060 -135.617828 2.228885 0.850567 90.185791
[L_rear_hand01]
59 101.696655 -8.392275 -7.654577 -31.684448 -23.583006 144.025742 102.329041
60 101.696655 -8.392275 -7.654577 -31.684460 -23.583012 144.025742 102.329041
[L_rear_hand02]
59 102.726799 -1.568258 5.773216 82.701553 38.753960 171.553619 102.900848
60 102.726799 -1.568258 5.773216 82.701569 38.753956 171.553619 102.900848
[L_rear_hand03]
59 104.552910 9.721220 -10.420293 -163.975388 -19.004423 -142.009338 105.519653
60 104.552910 9.721220 -10.420293 -163.975388 -19.004417 -142.009338 105.519653
